<svg xmlns="http://www.w3.org/2000/svg" width="128" height="128" viewBox="0 0 128 128">
  <title>PIZZA</title>
  <g>
    <path d="M114.222,67.736A53.958,53.958,0,1,1,60.264,13.778V67.736Z" fill="#ffb65f"/>
    <path d="M67.736,6.307a53.958,53.958,0,0,1,53.957,53.957H67.736Z" fill="#ffb65f"/>
    <path d="M103.712,67.736A43.448,43.448,0,1,1,60.264,24.288V67.736Z" fill="#fee97d"/>
    <path d="M67.736,16.816a43.448,43.448,0,0,1,43.447,43.448H67.736Z" fill="#fee97d"/>
    <path d="M90.767,42.637A5.368,5.368,0,1,1,85.4,37.27,5.367,5.367,0,0,1,90.767,42.637Z" fill="#f07281"/>
    <path d="M77.892,90.767A5.368,5.368,0,1,1,83.259,85.4,5.367,5.367,0,0,1,77.892,90.767Z" fill="#f07281"/>
    <path d="M37.233,85.363A5.368,5.368,0,1,1,42.6,90.73,5.367,5.367,0,0,1,37.233,85.363Z" fill="#f07281"/>
    <path d="M42.637,44.7a5.368,5.368,0,1,1-5.368,5.368A5.367,5.367,0,0,1,42.637,44.7Z" fill="#f07281"/>
    <g>
      <path d="M56.947,79.345A2.349,2.349,0,1,0,54.6,77,2.349,2.349,0,0,0,56.947,79.345Z"/>
      <path d="M65.434,99.642a2.349,2.349,0,1,0-2.349,2.349A2.349,2.349,0,0,0,65.434,99.642Z"/>
      <path d="M28.748,61A2.349,2.349,0,1,0,31.1,63.349,2.349,2.349,0,0,0,28.748,61Z"/>
      <path d="M80.927,28.739a2.349,2.349,0,1,0-2.349,2.349A2.349,2.349,0,0,0,80.927,28.739Z"/>
      <path d="M60.264,42.86a1.751,1.751,0,0,0-1.75,1.75v4.5a1.75,1.75,0,0,0,3.5,0v-4.5A1.751,1.751,0,0,0,60.264,42.86Z"/>
      <path d="M114.222,65.986H62.014v-7.64a1.75,1.75,0,0,0-3.5,0v9.39a1.751,1.751,0,0,0,1.75,1.75h41.654a41.694,41.694,0,1,1-43.4-43.4v8.871a1.75,1.75,0,0,0,3.5,0V13.778a1.751,1.751,0,0,0-1.75-1.75,55.713,55.713,0,0,0-29.7,102.845,1.75,1.75,0,1,0,1.868-2.959A52.214,52.214,0,0,1,58.514,15.557v7.025a45.193,45.193,0,1,0,46.9,46.9h7.025A52.241,52.241,0,0,1,40.48,116.065a1.75,1.75,0,1,0-1.327,3.238,55.739,55.739,0,0,0,76.819-51.567A1.751,1.751,0,0,0,114.222,65.986Z"/>
      <path d="M67.735,4.557a1.751,1.751,0,0,0-1.75,1.75V60.264a1.751,1.751,0,0,0,1.75,1.75h53.958a1.751,1.751,0,0,0,1.75-1.75A55.77,55.77,0,0,0,67.735,4.557Zm1.75,14.054a41.742,41.742,0,0,1,39.9,39.9h-39.9Zm43.4,39.9a45.243,45.243,0,0,0-43.4-43.4V8.086a52.272,52.272,0,0,1,50.429,50.428Z"/>
      <path d="M85.4,35.52a7.117,7.117,0,1,0,7.118,7.117A7.125,7.125,0,0,0,85.4,35.52Zm0,10.734a3.617,3.617,0,1,1,3.618-3.617A3.622,3.622,0,0,1,85.4,46.254Z"/>
      <path d="M85.009,85.4a7.117,7.117,0,1,0-7.117,7.118A7.125,7.125,0,0,0,85.009,85.4Zm-10.734,0a3.617,3.617,0,1,1,3.617,3.618A3.621,3.621,0,0,1,74.275,85.4Z"/>
      <path d="M42.6,78.246a7.117,7.117,0,1,0,7.117,7.117A7.126,7.126,0,0,0,42.6,78.246Zm0,10.734a3.617,3.617,0,1,1,3.617-3.617A3.621,3.621,0,0,1,42.6,88.98Z"/>
      <path d="M42.637,42.955a7.117,7.117,0,1,0,7.117,7.117A7.126,7.126,0,0,0,42.637,42.955Zm0,10.734a3.617,3.617,0,1,1,3.617-3.617A3.622,3.622,0,0,1,42.637,53.689Z"/>
    </g>
  </g>
</svg>
